<?xml version="1.0" encoding="utf-8"?>
<!-- Generator: Adobe Illustrator 27.2.0, SVG Export Plug-In . SVG Version: 6.00 Build 0)  -->
<svg version="1.1" xmlns="http://www.w3.org/2000/svg" xmlns:xlink="http://www.w3.org/1999/xlink" x="0px" y="0px"
	 viewBox="0 0 500 500" style="enable-background:new 0 0 500 500;" xml:space="preserve">
<style type="text/css">
	.st0{fill:#EBEBEB;}
	.st1{fill:#F0F0F0;}
	.st2{fill:#E0E0E0;}
	.st3{fill:#FAFAFA;}
	.st4{fill:#F5F5F5;}
	.st5{fill:#E6E6E6;}
	.st6{fill:#FFFFFF;}
	.st7{display:none;}
	.st8{display:inline;}
	.st9{fill:#407BFF;}
	.st10{opacity:0.9;fill:#FFFFFF;}
	.st11{fill:#263238;}
	.st12{fill:#7F3E3B;}
	.st13{fill:#630F0F;}
	.st14{opacity:0.2;}
	.st15{opacity:0.5;fill:#FFFFFF;}
	.st16{opacity:0.5;}
	.st17{opacity:0.3;}
	.st18{opacity:0.2;fill:#407BFF;}
</style>
<g id="Background_Complete">
	<g>
		<rect y="382.4" class="st0" width="500" height="0.25"/>
		<rect x="332.11" y="389.21" class="st0" width="97.6" height="0.25"/>
		<rect x="289" y="394.99" class="st0" width="46.67" height="0.25"/>
		<rect x="430.71" y="398.49" class="st0" width="19.19" height="0.25"/>
		<rect x="126.47" y="395.11" class="st0" width="92.53" height="0.25"/>
		<rect x="97.67" y="395.11" class="st0" width="19.9" height="0.25"/>
		<rect x="57.79" y="390.89" class="st0" width="32.86" height="0.25"/>
		<path class="st0" d="M237.01,337.8H43.92c-3.15,0-5.71-2.56-5.71-5.71V60.66c0-3.15,2.56-5.71,5.71-5.71h193.1
			c3.15,0,5.71,2.56,5.71,5.71v271.43C242.72,335.24,240.16,337.8,237.01,337.8z M43.92,55.2c-3.01,0-5.46,2.45-5.46,5.46v271.43
			c0,3.01,2.45,5.46,5.46,5.46h193.1c3.01,0,5.46-2.45,5.46-5.46V60.66c0-3.01-2.45-5.46-5.46-5.46H43.92z"/>
		<path class="st0" d="M453.31,337.8h-193.1c-3.15,0-5.71-2.56-5.71-5.71V60.66c0-3.15,2.56-5.71,5.71-5.71h193.1
			c3.15,0,5.71,2.56,5.71,5.71v271.43C459.02,335.24,456.46,337.8,453.31,337.8z M260.21,55.2c-3.01,0-5.46,2.45-5.46,5.46v271.43
			c0,3.01,2.45,5.46,5.46,5.46h193.1c3.01,0,5.46-2.45,5.46-5.46V60.66c0-3.01-2.45-5.46-5.46-5.46H260.21z"/>
	</g>
	<g>
		<g>
			<polygon class="st1" points="391.07,373.19 89.03,373.19 71.02,168.31 373.06,168.31 			"/>
			<polygon class="st2" points="83.7,379.72 89.03,373.19 71.02,168.31 65.69,174.94 			"/>
			<path class="st3" d="M93.03,365.42L76.43,176.69c-0.17-1.99,1.39-3.7,3.39-3.7h285.86c1.76,0,3.23,1.35,3.39,3.1l16.59,188.73
				c0.17,1.99-1.39,3.7-3.39,3.7H96.41C94.65,368.52,93.18,367.17,93.03,365.42z"/>
			<polygon class="st2" points="131.49,373.19 85.98,373.19 82.76,382.4 128.27,382.4 			"/>
			<polygon class="st4" points="131.49,373.19 430.71,373.19 427.49,382.4 128.27,382.4 			"/>
			<polygon class="st2" points="254.7,373.19 312.06,373.19 311.44,379.22 254.09,379.22 			"/>
		</g>
		<g>
			<path class="st2" d="M341.62,154.86h72.47c6.01,39.76-21.77,72.47-61.52,72.47c-12.72,0-25.72-3.35-37.7-9.71L341.62,154.86z"/>
			<path class="st0" d="M341.62,154.86l38.2-55.52c9.13,6.8,16.94,15.3,22.86,24.89c5.92,9.59,9.82,20.05,11.42,30.63H341.62z"/>
			<path class="st5" d="M341.62,154.86l-10.95-72.47c8.45,0,17.07,1.48,25.45,4.37c8.38,2.89,16.4,7.15,23.7,12.58L341.62,154.86z"
				/>
			<path class="st1" d="M341.62,154.86l-26.75,62.76c-24.35-12.93-41.81-36.9-45.71-62.76c-6.01-39.76,21.77-72.47,61.52-72.47
				L341.62,154.86z"/>
		</g>
		<g>
			<path class="st0" d="M252.15,284.19h64.29c0.85,5.62,0.96,11.21,0.32,16.64c-0.63,5.43-2.01,10.64-4.08,15.5L252.15,284.19z"/>
			<path class="st2" d="M252.15,284.19l1.6-63.31c15.28,2.62,29.94,10.41,41.4,21.99c11.46,11.57,19,26.21,21.28,41.32H252.15z"/>
			<path class="st1" d="M252.15,284.19l-57.09,21.99c-3.63-7.05-6.07-14.49-7.2-21.99c-5.33-35.27,19.31-64.28,54.57-64.28
				c3.74,0,7.53,0.33,11.31,0.98L252.15,284.19z"/>
			<path class="st6" d="M252.15,284.19l60.53,32.14c-8.47,19.87-27.88,32.14-50.82,32.14c-26.96,0-53.75-16.96-66.8-42.3
				L252.15,284.19z"/>
		</g>
	</g>
</g>
<g id="Background_Simple" class="st7">
	<g class="st8">
		<path class="st9" d="M268.27,162.18c-44.6-34.32-119.54-113.33-165.33-42.13c-45.45,70.68,41.67,158.45,96.55,182.39
			c55.48,24.2,204.7,23.95,191.8-65.53C382.41,175.35,317.53,200.1,268.27,162.18z"/>
		<path class="st10" d="M268.27,162.18c-44.6-34.32-119.54-113.33-165.33-42.13c-45.45,70.68,41.67,158.45,96.55,182.39
			c55.48,24.2,204.7,23.95,191.8-65.53C382.41,175.35,317.53,200.1,268.27,162.18z"/>
	</g>
</g>
<g id="Shadow_1_">
	<ellipse id="_x3C_Path_x3E__297_" class="st4" cx="250" cy="416.24" rx="193.89" ry="11.32"/>
</g>
<g id="Setup_analytics">
	<g>
		<g>
			<g>
				<path class="st6" d="M240.59,239.39h-90.08c-5.72,0-10.77-4.68-11.24-10.39l-4.51-55.39c-0.47-5.72,3.83-10.39,9.55-10.39h90.08
					c5.72,0,10.77,4.68,11.24,10.39l4.51,55.39C250.6,234.71,246.3,239.39,240.59,239.39z"/>
				<path class="st9" d="M240.59,239.82h-90.08c-5.95,0-11.19-4.84-11.67-10.79l-4.51-55.39c-0.24-2.89,0.68-5.62,2.58-7.68
					c1.89-2.05,4.52-3.18,7.4-3.18h90.08c5.95,0,11.19,4.84,11.67,10.79l4.51,55.39c0.24,2.89-0.68,5.62-2.58,7.68
					C246.09,238.69,243.47,239.82,240.59,239.82z M144.31,163.65c-2.64,0-5.04,1.03-6.76,2.9c-1.73,1.88-2.57,4.38-2.35,7.02
					l4.51,55.39c0.45,5.51,5.3,10,10.81,10h90.08c2.64,0,5.04-1.03,6.76-2.9c1.73-1.88,2.57-4.38,2.35-7.02l-4.51-55.39
					c-0.45-5.51-5.3-10-10.81-10H144.31z"/>
			</g>
			<g>
				<path class="st2" d="M216.14,223.22c-3.53,3.85-8.1,6.61-13.24,8.02l-1.49-4.27c11.09-3.03,18.6-13.37,17.6-25.66
					c-0.6-7.34-4.11-13.98-9.31-18.79l2.87-3.13C225.57,191.41,227.18,211.19,216.14,223.22z"/>
				<path class="st11" d="M212.57,179.39l-2.87,3.13c-5.2-4.81-12.08-7.78-19.42-7.78c-7.34,0-13.74,2.98-18.14,7.79l-3.39-3.14
					c5.34-5.81,12.96-9.08,21.17-9.08C198.14,170.31,206.29,173.58,212.57,179.39z"/>
				<path class="st9" d="M202.9,231.24c-10.45,2.86-22.13-0.21-30.59-8.02c-12.99-12.02-14.6-31.8-3.57-43.83l3.39,3.14
					c-4.42,4.81-6.85,11.44-6.25,18.78c1.19,14.66,14.05,26.55,28.72,26.55c2.37,0,4.66-0.31,6.8-0.89L202.9,231.24z"/>
			</g>
		</g>
		<g>
			<rect x="110.67" y="73.69" class="st9" width="7.22" height="0.87"/>
			<rect x="87.22" y="73.69" class="st9" width="16.44" height="0.87"/>
			<g>
				<path class="st6" d="M180.14,153.29H90.07c-5.72,0-10.77-4.68-11.24-10.39l-4.51-55.39c-0.47-5.72,3.83-10.39,9.55-10.39h90.08
					c5.72,0,10.77,4.68,11.24,10.39l4.51,55.39C190.16,148.62,185.86,153.29,180.14,153.29z"/>
				<path class="st9" d="M180.14,153.73H90.07c-5.95,0-11.19-4.84-11.67-10.79l-4.51-55.39c-0.24-2.89,0.68-5.62,2.58-7.68
					c1.89-2.05,4.52-3.18,7.4-3.18h90.08c5.95,0,11.19,4.84,11.67,10.79l4.51,55.39c0.24,2.89-0.68,5.62-2.58,7.68
					C185.65,152.6,183.02,153.73,180.14,153.73z M83.87,77.55c-2.64,0-5.04,1.03-6.76,2.9c-1.73,1.88-2.57,4.37-2.35,7.02
					l4.51,55.39c0.45,5.51,5.3,10,10.81,10h90.08c2.64,0,5.04-1.03,6.76-2.9c1.73-1.88,2.57-4.38,2.35-7.02l-4.51-55.39
					c-0.45-5.51-5.3-10-10.81-10H83.87z"/>
			</g>
			<g>
				<polygon class="st2" points="82.47,93.01 130.2,93.01 129.81,88.3 82.08,88.3 				"/>
				<polygon class="st9" points="177.93,93.01 130.2,93.01 129.81,88.3 177.55,88.3 				"/>
				<polygon class="st2" points="83.47,105.29 97.08,105.29 96.7,100.57 83.08,100.57 				"/>
				<polygon class="st9" points="178.93,105.29 97.08,105.29 96.7,100.57 178.55,100.57 				"/>
				<polygon class="st2" points="84.47,117.57 126.95,117.57 126.57,112.85 84.08,112.85 				"/>
				<polygon class="st9" points="179.93,117.57 126.95,117.57 126.57,112.85 179.55,112.85 				"/>
				<polygon class="st2" points="85.46,129.84 157.98,129.84 157.59,125.13 85.08,125.13 				"/>
				<polygon class="st9" points="180.93,129.84 157.98,129.84 157.59,125.13 180.55,125.13 				"/>
				<polygon class="st2" points="86.46,142.12 120,142.12 119.62,137.4 86.08,137.4 				"/>
				<polygon class="st9" points="181.93,142.12 120,142.12 119.62,137.4 181.54,137.4 				"/>
			</g>
		</g>
		<g>
			<g>
				<path class="st6" d="M303.28,153.29h-90.08c-5.72,0-10.77-4.68-11.24-10.39l-4.51-55.39c-0.47-5.72,3.83-10.39,9.55-10.39h90.08
					c5.72,0,10.77,4.68,11.24,10.39l4.51,55.39C313.29,148.62,309,153.29,303.28,153.29z"/>
				<path class="st9" d="M303.28,153.73h-90.08c-5.95,0-11.19-4.84-11.67-10.79l-4.51-55.39c-0.24-2.89,0.68-5.62,2.58-7.68
					c1.89-2.05,4.52-3.18,7.4-3.18h90.08c5.95,0,11.19,4.84,11.67,10.79l4.51,55.39c0.24,2.89-0.68,5.62-2.58,7.68
					C308.79,152.6,306.16,153.73,303.28,153.73z M207,77.55c-2.64,0-5.04,1.03-6.76,2.9c-1.73,1.88-2.57,4.38-2.35,7.02l4.51,55.39
					c0.45,5.51,5.3,10,10.81,10h90.08c2.64,0,5.04-1.03,6.76-2.9c1.73-1.88,2.57-4.37,2.35-7.02l-4.51-55.39
					c-0.45-5.51-5.3-10-10.81-10H207z"/>
			</g>
			<g>
				<polygon class="st2" points="258.13,142.12 256.54,142.12 252.16,88.3 253.75,88.3 				"/>
				<polygon class="st9" points="260.53,119.75 250.5,119.75 248.79,98.73 258.82,98.73 				"/>
				<polygon class="st2" points="238.39,142.12 236.8,142.12 232.41,88.3 234,88.3 				"/>
				<polygon class="st9" points="241.17,124.42 231.13,124.42 229.63,105.99 239.67,105.99 				"/>
				<polygon class="st2" points="218.64,142.12 217.05,142.12 212.67,88.3 214.26,88.3 				"/>
				<polygon class="st11" points="220.19,109.26 210.16,109.26 209.13,96.6 219.16,96.6 				"/>
				<polygon class="st2" points="277.87,142.12 276.28,142.12 271.9,88.3 273.49,88.3 				"/>
				<polygon class="st11" points="281.24,131.69 271.21,131.69 268.53,98.73 278.56,98.73 				"/>
				<polygon class="st2" points="297.62,142.12 296.03,142.12 291.64,88.3 293.23,88.3 				"/>
				<polygon class="st9" points="301.31,135.64 291.28,135.64 289.13,109.24 299.16,109.24 				"/>
			</g>
		</g>
		<g>
			<g>
				<path class="st6" d="M206.89,324.77h-90.08c-5.72,0-10.77-4.68-11.24-10.39l-4.51-55.39c-0.47-5.72,3.83-10.39,9.55-10.39h90.08
					c5.72,0,10.77,4.68,11.24,10.39l4.51,55.39C216.9,320.09,212.61,324.77,206.89,324.77z"/>
				<path class="st9" d="M206.89,325.2h-90.08c-5.95,0-11.19-4.84-11.67-10.79l-4.51-55.39c-0.24-2.89,0.68-5.62,2.58-7.68
					c1.89-2.05,4.52-3.18,7.4-3.18h90.08c5.95,0,11.19,4.84,11.67,10.79l4.51,55.39c0.24,2.89-0.68,5.62-2.58,7.68
					C212.4,324.08,209.77,325.2,206.89,325.2z M110.61,249.03c-2.64,0-5.04,1.03-6.76,2.9c-1.73,1.88-2.57,4.38-2.35,7.02
					l4.51,55.39c0.45,5.51,5.3,10,10.81,10h90.08c2.64,0,5.04-1.03,6.76-2.9c1.73-1.88,2.57-4.37,2.35-7.02l-4.51-55.39
					c-0.45-5.51-5.3-10-10.81-10H110.61z"/>
			</g>
			<g>
				<polygon class="st9" points="122.8,285.36 142.21,307.79 164.48,273.45 178.24,291.2 181.6,286.02 204.11,312.99 117.67,312.96 
									"/>
				<polygon class="st2" points="187.61,286.76 178.59,306.08 149.81,260.38 136.26,289.4 131.91,282.51 117.68,312.99 
					204.1,312.95 				"/>
			</g>
		</g>
	</g>
</g>
<g id="Character_1_">
	<g>
		<path class="st9" d="M372.88,159.06c2.41,4.52,4.48,8.99,6.43,13.64c1.9,4.66,3.66,9.39,5.03,14.38c0.35,1.24,0.65,2.52,0.94,3.8
			c0.12,0.44,0.4,1.83,0.4,2.71c0.05,0.98-0.03,1.87-0.15,2.71c-0.54,3.32-1.71,5.87-2.97,8.28c-2.59,4.77-5.71,8.72-9.35,12.45
			c-1.09,1.12-2.88,1.14-4,0.05c-0.91-0.89-1.1-2.25-0.54-3.32l0.07-0.14c2.14-4.14,4.27-8.51,5.7-12.65
			c0.69-2.05,1.24-4.15,1.23-5.7c-0.01-0.37-0.02-0.71-0.08-0.95c-0.02-0.12-0.05-0.23-0.08-0.29l-0.18-0.59
			c-0.33-1.08-0.68-2.15-1.08-3.24c-1.51-4.34-3.39-8.7-5.33-13.03c-1.94-4.31-4.02-8.7-6.08-12.87l-0.04-0.08
			c-1.39-2.81-0.24-6.21,2.57-7.6C368.11,155.28,371.44,156.37,372.88,159.06z"/>
		<path class="st12" d="M369.75,213.21l-4.77,1.5l5.62,6.58c0,0,2.17-1.91,2.95-4.67c0.26-0.93-0.12-1.93-0.91-2.5l-0.8-0.58
			C371.24,213.11,370.46,212.99,369.75,213.21z"/>
		<polygon class="st12" points="358.4,218.77 364.42,223.55 370.6,221.29 364.98,214.72 		"/>
		<path class="st11" d="M337.85,125.61c-0.12,0.59-0.53,1.01-0.92,0.93c-0.39-0.08-0.6-0.62-0.48-1.21
			c0.12-0.59,0.53-1.01,0.92-0.93C337.75,124.48,337.97,125.02,337.85,125.61z"/>
		<path class="st13" d="M337.37,126.63c0,0-2.04,3.14-3.85,4.49c0.85,1.19,2.72,1.1,2.72,1.1L337.37,126.63z"/>
		<path class="st11" d="M340.68,122.77c0.09,0,0.17-0.03,0.24-0.09c0.14-0.13,0.15-0.36,0.02-0.5c-1.33-1.44-2.95-1.18-3.02-1.17
			c-0.19,0.03-0.32,0.22-0.29,0.41c0.03,0.19,0.22,0.32,0.41,0.29l0,0c0.05-0.01,1.32-0.19,2.38,0.96
			C340.49,122.73,340.59,122.77,340.68,122.77z"/>
		<path class="st12" d="M354.28,136.38c-1.07,5.48-1.72,13.06,2.11,16.72c0,0-1.5,5.55-11.67,5.55c-11.19,0-5.38-4.87-5.38-4.87
			c4.65-1.44,4.61-6.74,3.55-11L354.28,136.38z"/>
		<path class="st9" d="M337.37,152.92c0,0,1.63-3.87,3.3-4.53c1.67-0.67,12.28-2.41,14.72-0.87c2.44,1.54,4.1,6.48,4.1,6.48
			L337.37,152.92z"/>
		<path class="st9" d="M348.59,408.98c-0.96,0-1.89-0.13-2.2-0.56c-0.11-0.15-0.19-0.41,0.01-0.77c0.12-0.21,0.31-0.35,0.56-0.41
			c1.25-0.34,3.86,1.15,3.97,1.22c0.06,0.04,0.1,0.11,0.09,0.18c-0.01,0.07-0.07,0.13-0.14,0.15
			C350.41,408.86,349.48,408.98,348.59,408.98z M347.4,407.53c-0.12,0-0.24,0.01-0.34,0.04c-0.16,0.04-0.28,0.13-0.35,0.25
			c-0.13,0.22-0.08,0.33-0.03,0.39c0.35,0.48,2.24,0.49,3.63,0.3C349.61,408.15,348.28,407.53,347.4,407.53z"/>
		<path class="st9" d="M350.85,408.77c-0.02,0-0.05-0.01-0.07-0.02c-0.9-0.41-2.69-2.02-2.56-2.87c0.03-0.2,0.17-0.45,0.66-0.5
			c0.36-0.04,0.69,0.07,0.98,0.3c0.95,0.78,1.15,2.8,1.16,2.88c0.01,0.06-0.02,0.12-0.07,0.16
			C350.92,408.76,350.89,408.77,350.85,408.77z M349.02,405.74c-0.03,0-0.07,0-0.11,0.01c-0.32,0.03-0.34,0.16-0.35,0.2
			c-0.08,0.51,1.13,1.78,2.06,2.33c-0.1-0.59-0.36-1.8-0.99-2.31C349.45,405.81,349.25,405.74,349.02,405.74z"/>
		<polygon class="st12" points="359.08,408.59 351.6,408.59 350.85,391.26 358.33,391.26 		"/>
		<path class="st11" d="M351.64,407.73h8.17c0.31,0,0.57,0.21,0.64,0.51l1.48,6.65c0.15,0.69-0.37,1.34-1.08,1.33
			c-2.95-0.05-7.21-0.22-10.92-0.22c-4.33,0-4.86,0.24-9.94,0.24c-3.07,0-3.93-3.11-2.64-3.39c5.86-1.28,7.42-1.42,12.48-4.54
			C350.39,407.97,351,407.73,351.64,407.73z"/>
		<path class="st11" d="M369.79,153.12c7.02,1.61,11.64,20.54,11.64,20.54l-11.71,8.8c0,0-6.39-3.96-8.69-12.92
			C358.62,160.16,362.62,151.48,369.79,153.12z"/>
		<path class="st14" d="M363.78,166.29c3.81,3.77,6.27,9.72,6.57,15.69l-0.62,0.48c0,0-6.4-3.96-8.7-12.92
			c-0.14-0.56-0.26-1.12-0.37-1.67L363.78,166.29z"/>
		<g>
			<g>
				
					<rect x="344.44" y="191.02" transform="matrix(0.9286 -0.3711 0.3711 0.9286 -52.5517 154.4456)" class="st9" width="61.2" height="45.51"/>
				
					<rect x="344.48" y="191.19" transform="matrix(0.9286 -0.3711 0.3711 0.9286 -52.6435 154.3021)" class="st15" width="60.3" height="45.51"/>
			</g>
			<g class="st16">
				
					<rect x="343.69" y="205.15" transform="matrix(0.9286 -0.3711 0.3711 0.9286 -52.1378 143.3971)" class="st9" width="5.71" height="4.05"/>
				
					<rect x="352.44" y="201.65" transform="matrix(0.9286 -0.3711 0.3711 0.9286 -50.2146 146.3956)" class="st9" width="5.71" height="4.05"/>
				
					<rect x="361.19" y="198.16" transform="matrix(0.9286 -0.3711 0.3711 0.9286 -48.2914 149.3941)" class="st9" width="5.71" height="4.05"/>
				
					<rect x="369.95" y="194.66" transform="matrix(0.9286 -0.3711 0.3711 0.9286 -46.3682 152.3926)" class="st9" width="5.71" height="4.05"/>
				
					<rect x="378.7" y="191.16" transform="matrix(0.9286 -0.3711 0.3711 0.9286 -44.445 155.3911)" class="st9" width="5.71" height="4.05"/>
				
					<rect x="387.45" y="187.66" transform="matrix(0.9286 -0.3711 0.3711 0.9286 -42.5223 158.3966)" class="st9" width="5.71" height="4.05"/>
				
					<rect x="346.17" y="211.36" transform="matrix(0.9286 -0.3711 0.3711 0.9286 -54.2628 144.7578)" class="st9" width="5.71" height="4.05"/>
				
					<rect x="354.92" y="207.86" transform="matrix(0.9286 -0.3711 0.3711 0.9286 -52.34 147.7589)" class="st9" width="5.71" height="4.05"/>
				
					<rect x="363.67" y="204.36" transform="matrix(0.9286 -0.3711 0.3711 0.9286 -50.4168 150.7573)" class="st9" width="5.71" height="4.05"/>
				
					<rect x="372.43" y="200.86" transform="matrix(0.9286 -0.3711 0.3711 0.9286 -48.4936 153.7558)" class="st9" width="5.71" height="4.05"/>
				
					<rect x="381.18" y="197.37" transform="matrix(0.9286 -0.3711 0.3711 0.9286 -46.5704 156.7543)" class="st9" width="5.71" height="4.05"/>
				
					<rect x="389.93" y="193.87" transform="matrix(0.9286 -0.3711 0.3711 0.9286 -44.6473 159.7528)" class="st9" width="5.71" height="4.05"/>
				
					<rect x="348.65" y="217.56" transform="matrix(0.9286 -0.3711 0.3711 0.9286 -56.3887 146.1236)" class="st9" width="5.71" height="4.05"/>
				
					<rect x="357.4" y="214.06" transform="matrix(0.9286 -0.3711 0.3711 0.9286 -54.465 149.1194)" class="st9" width="5.71" height="4.05"/>
				
					<rect x="366.15" y="210.57" transform="matrix(0.9286 -0.3711 0.3711 0.9286 -52.5423 152.1206)" class="st9" width="5.71" height="4.05"/>
				
					<rect x="374.91" y="207.07" transform="matrix(0.9286 -0.3711 0.3711 0.9286 -50.6191 155.119)" class="st9" width="5.71" height="4.05"/>
				
					<rect x="383.66" y="203.57" transform="matrix(0.9286 -0.3711 0.3711 0.9286 -48.6966 158.1246)" class="st9" width="5.71" height="4.05"/>
				
					<rect x="392.41" y="200.07" transform="matrix(0.9286 -0.3711 0.3711 0.9286 -46.7733 161.1232)" class="st9" width="5.71" height="4.05"/>
				
					<rect x="351.13" y="223.77" transform="matrix(0.9286 -0.3711 0.3711 0.9286 -58.5141 147.4868)" class="st9" width="5.71" height="4.05"/>
				
					<rect x="359.88" y="220.27" transform="matrix(0.9286 -0.3711 0.3711 0.9286 -56.5909 150.4853)" class="st9" width="5.71" height="4.05"/>
				
					<rect x="368.63" y="216.77" transform="matrix(0.9286 -0.3711 0.3711 0.9286 -54.6673 153.481)" class="st9" width="5.71" height="4.05"/>
				
					<rect x="377.39" y="213.27" transform="matrix(0.9286 -0.3711 0.3711 0.9286 -52.7445 156.4823)" class="st9" width="5.71" height="4.05"/>
				
					<rect x="386.14" y="209.77" transform="matrix(0.9286 -0.3711 0.3711 0.9286 -50.8213 159.4808)" class="st9" width="5.71" height="4.05"/>
				
					<rect x="394.89" y="206.28" transform="matrix(0.9286 -0.3711 0.3711 0.9286 -48.8981 162.4793)" class="st9" width="5.71" height="4.05"/>
				
					<rect x="353.61" y="229.97" transform="matrix(0.9286 -0.3711 0.3711 0.9286 -60.639 148.8473)" class="st9" width="5.71" height="4.05"/>
				
					<rect x="362.36" y="226.47" transform="matrix(0.9286 -0.3711 0.3711 0.9286 -58.7163 151.8485)" class="st9" width="5.71" height="4.05"/>
				
					<rect x="371.11" y="222.97" transform="matrix(0.9286 -0.3711 0.3711 0.9286 -56.7931 154.847)" class="st9" width="5.71" height="4.05"/>
				
					<rect x="379.86" y="219.48" transform="matrix(0.9286 -0.3711 0.3711 0.9286 -54.8706 157.8498)" class="st9" width="5.71" height="4.05"/>
				
					<rect x="388.62" y="215.98" transform="matrix(0.9286 -0.3711 0.3711 0.9286 -52.9477 160.8512)" class="st9" width="5.71" height="4.05"/>
				
					<rect x="397.37" y="212.48" transform="matrix(0.9286 -0.3711 0.3711 0.9286 -51.0236 163.8425)" class="st9" width="5.71" height="4.05"/>
				
					<rect x="356.09" y="236.18" transform="matrix(0.9286 -0.3711 0.3711 0.9286 -62.765 150.2133)" class="st9" width="5.71" height="4.05"/>
				
					<rect x="364.84" y="232.68" transform="matrix(0.9286 -0.3711 0.3711 0.9286 -60.8418 153.2118)" class="st9" width="5.71" height="4.05"/>
				
					<rect x="373.59" y="229.18" transform="matrix(0.9286 -0.3711 0.3711 0.9286 -58.9186 156.2103)" class="st9" width="5.71" height="4.05"/>
				
					<rect x="382.34" y="225.68" transform="matrix(0.9286 -0.3711 0.3711 0.9286 -56.9954 159.2087)" class="st9" width="5.71" height="4.05"/>
				
					<rect x="391.1" y="222.18" transform="matrix(0.9286 -0.3711 0.3711 0.9286 -55.0718 162.2043)" class="st9" width="5.71" height="4.05"/>
				
					<rect x="399.85" y="218.68" transform="matrix(0.9286 -0.3711 0.3711 0.9286 -53.149 165.2057)" class="st9" width="5.71" height="4.05"/>
			</g>
			<g>
				<path class="st6" d="M390.31,194.7c-0.32-0.81,0.07-1.74,0.88-2.06c0.81-0.33,1.74,0.07,2.06,0.88
					c0.33,0.81-0.07,1.74-0.88,2.06C391.56,195.91,390.63,195.51,390.31,194.7z"/>
				<path class="st6" d="M389,216.81c-0.33-0.81,0.07-1.74,0.88-2.06c0.81-0.32,1.74,0.07,2.06,0.88c0.33,0.81-0.07,1.74-0.88,2.06
					C390.24,218.02,389.32,217.63,389,216.81z"/>
				<path class="st6" d="M369.01,217.6c-0.33-0.81,0.07-1.74,0.88-2.06c0.81-0.33,1.74,0.07,2.06,0.88
					c0.33,0.81-0.07,1.74-0.88,2.06C370.26,218.81,369.33,218.42,369.01,217.6z"/>
				<path class="st6" d="M356.46,237.01c-0.33-0.81,0.07-1.74,0.88-2.06c0.81-0.33,1.74,0.07,2.06,0.88
					c0.33,0.81-0.07,1.74-0.88,2.06C357.71,238.22,356.79,237.82,356.46,237.01z"/>
				<path class="st6" d="M357.94,237.01c-0.11,0-0.22-0.03-0.32-0.09c-0.27-0.18-0.35-0.54-0.17-0.81l12.55-19.41
					c0.1-0.16,0.28-0.26,0.47-0.27l19.45-0.77l1.28-21.58c0.02-0.32,0.31-0.57,0.62-0.55c0.32,0.02,0.57,0.3,0.55,0.62l-1.31,22.11
					c-0.02,0.3-0.26,0.54-0.56,0.55l-19.68,0.78l-12.38,19.15C358.32,236.91,358.13,237.01,357.94,237.01z"/>
			</g>
		</g>
		<path class="st11" d="M325.46,160.63c-1.53,8.09-2.49,24.69,1.95,57.58h40.03c-0.72-5.7-3.59-36.12,2.34-65.08
			c0,0-6.86-1.38-13.4-1.69c-5.12-0.25-12.52-0.41-17.02,0c-1.88,0.17-3.72,0.44-5.36,0.73
			C329.68,152.93,326.28,156.31,325.46,160.63z"/>
		<path class="st14" d="M331.76,173.08l-7.52,0.6c-0.27,9.73,0.4,23.93,3.18,44.52h0.36C332.29,203.37,338.27,182.17,331.76,173.08z
			"/>
		<g>
			<polygon class="st14" points="350.85,391.27 351.23,400.2 358.72,400.2 358.34,391.27 			"/>
		</g>
		<path class="st12" d="M357.84,128.37c-1.92,7.18-2.68,11.47-7.11,14.46c-6.66,4.49-14.95-0.66-15.21-8.27
			c-0.23-6.85,2.95-17.43,10.65-18.88C353.75,114.26,359.76,121.19,357.84,128.37z"/>
		<path class="st11" d="M341.04,128.42l-3.89,1.01l3.62-9.39c-0.39-0.72-1.42-3.98-0.33-7.24c0.29-0.86,1.08-1.44,1.98-1.46
			c8.06-0.16,16.49,4.37,20.73,7.79c0.82,0.66,1.02,1.82,0.47,2.72c-0.93,1.52-2.13,2.69-3.65,4.23c-0.08,2.63-4.37,14.5-6.75,15.84
			c-2.38,1.33-6.92,0.79-8.12-1.38C343.89,138.38,339.81,135.5,341.04,128.42z"/>
		<path class="st12" d="M344.64,128.57c-0.44,1.9-1.63,3.55-2.9,4.55c-1.91,1.5-3.4,0.12-3.32-2.09c0.07-1.99,1.15-5.16,3.28-5.81
			C343.8,124.58,345.14,126.4,344.64,128.57z"/>
		<path class="st9" d="M413.08,406.39c-0.01-0.96,0.12-1.89,0.55-2.2c0.15-0.11,0.41-0.2,0.77,0.01c0.21,0.12,0.35,0.3,0.42,0.56
			c0.35,1.24-1.13,3.87-1.19,3.98c-0.04,0.06-0.11,0.1-0.18,0.09c-0.07-0.01-0.13-0.07-0.15-0.14
			C413.21,408.21,413.09,407.29,413.08,406.39z M414.53,405.2c0-0.12-0.01-0.24-0.04-0.34c-0.05-0.16-0.13-0.28-0.25-0.35
			c-0.22-0.12-0.33-0.08-0.39-0.03c-0.48,0.35-0.48,2.24-0.27,3.63C413.92,407.42,414.53,406.07,414.53,405.2z"/>
		<path class="st9" d="M413.3,408.65c0-0.02,0-0.05,0.02-0.07c0.4-0.91,2.01-2.71,2.85-2.57c0.2,0.03,0.45,0.17,0.5,0.66
			c0.04,0.36-0.06,0.69-0.3,0.98c-0.78,0.96-2.79,1.17-2.88,1.18c-0.06,0.01-0.12-0.02-0.16-0.07
			C413.31,408.73,413.3,408.69,413.3,408.65z M416.33,406.81c0-0.03,0-0.07-0.01-0.11c-0.03-0.32-0.16-0.34-0.2-0.34
			c-0.51-0.08-1.77,1.15-2.32,2.07c0.59-0.1,1.79-0.37,2.3-1C416.25,407.24,416.33,407.03,416.33,406.81z"/>
		<polygon class="st12" points="413.42,408.7 406.11,409.22 402.01,391.75 409.31,391.23 		"/>
		<path class="st11" d="M413.39,407.03l-8.14-0.72c-0.3-0.03-0.59,0.16-0.68,0.45l-2.06,6.5c-0.21,0.67,0.25,1.37,0.96,1.42
			c2.94,0.21,7.2,0.41,10.89,0.74c4.32,0.38,1.52,0.37,6.58,0.82c3.06,0.27,4.18-2.75,2.93-3.14c-5.72-1.79-6.76-3.03-8.73-5.33
			C414.71,407.28,414.04,407.08,413.39,407.03z"/>
		<g>
			<polygon class="st14" points="402.01,391.75 404.13,400.76 411.43,400.24 409.32,391.24 			"/>
		</g>
		<path class="st9" d="M341.62,218.2c0,0,17.22,57.49,23.75,78.83c7.15,23.37,34.37,100.9,34.37,100.9l13.2-2.9
			c0,0-18.64-66.61-26.38-99.21c-5.94-25.04-19.11-77.63-19.11-77.63H341.62z"/>
		<path class="st11" d="M397.42,393.86c-0.06,0.01,1.3,5.16,1.3,5.16l15.87-1.7l-0.07-4.72L397.42,393.86z"/>
		<path class="st17" d="M351.15,244.85c9.53,1.26,13.32,34.46,14.75,53.94c-0.18-0.62-0.37-1.2-0.54-1.76
			c-3.57-11.65-10.32-34.11-15.71-52.08C350.1,244.81,350.61,244.77,351.15,244.85z"/>
		<path class="st9" d="M327.42,218.2c0,0,5.77,55.99,8.26,78.79c2.59,23.71,12.3,101.48,12.3,101.48h12.68
			c0,0-1.54-76.35-2.05-99.67c-0.56-25.42-4.88-80.6-4.88-80.6H327.42z"/>
		<path class="st11" d="M346.01,393.42c-0.06,0,0.72,5.26,0.72,5.26h15.42l0.42-4.7L346.01,393.42z"/>
		<g>
			<path class="st11" d="M273.27,270.88c6.61,10.48,20.47,13.62,30.95,7.01c10.48-6.61,13.62-20.46,7.01-30.95
				s-20.46-13.63-30.95-7.02C269.8,246.54,266.66,260.4,273.27,270.88z M308.23,248.84c5.56,8.82,2.92,20.49-5.9,26.05
				c-8.83,5.56-20.49,2.92-26.05-5.9c-5.56-8.83-2.92-20.49,5.91-26.05C291,237.37,302.66,240.02,308.23,248.84z"/>
			<path class="st18" d="M309.13,262.74c-2.11,9.32-11.38,15.17-20.71,13.05c-9.32-2.11-15.17-11.38-13.06-20.71
				c2.11-9.32,11.38-15.17,20.71-13.06C305.4,244.15,311.24,253.42,309.13,262.74z"/>
			<path class="st11" d="M311.84,244.23l2.1,3.34c0.32,0.51,0.17,1.18-0.34,1.5l0,0c-0.51,0.32-1.18,0.17-1.5-0.34l-2.1-3.34
				c-0.32-0.51-0.17-1.18,0.34-1.5l0,0C310.86,243.57,311.53,243.72,311.84,244.23z"/>
			<path class="st11" d="M325.45,234.74c-2.43,1.66-4.84,3.35-7.23,5.09c-2.38,1.74-4.74,3.51-7.04,5.39
				c-0.51,0.42-0.7,1.15-0.4,1.78c0.35,0.75,1.24,1.07,1.98,0.72c2.69-1.26,5.3-2.62,7.9-4.02c2.6-1.4,5.16-2.85,7.71-4.33
				c2.17-1.26,4.32-2.55,6.45-3.85c0.62-0.38,0.8-1.19,0.42-1.8l-1.73-2.75c-0.38-0.61-1.2-0.79-1.8-0.4
				C329.61,231.95,327.52,233.33,325.45,234.74z"/>
		</g>
		<path class="st9" d="M336.6,163.43c-1.22,6-2.54,11.99-3.9,17.95l-4.15,17.86c-1.34,5.82-2.49,11.72-3.54,17.71l-3.15,18
			l-0.01,0.04c-0.27,1.54-1.73,2.56-3.27,2.29c-1.34-0.23-2.29-1.38-2.34-2.68c-0.22-6.25-0.12-12.43,0.23-18.65
			c0.37-6.2,0.95-12.46,1.97-18.68c0.97-6.12,2.07-12.17,3.24-18.21c1.17-6.04,2.44-12.06,3.82-18.04c0.71-3.05,3.75-4.96,6.8-4.25
			C335.32,157.46,337.21,160.43,336.6,163.43z"/>
		<path class="st12" d="M321.01,233.33c-0.51-0.54-1.27-0.76-1.98-0.59l-1.63,0.39c-0.83,0.2-1.46,0.89-1.57,1.74l-0.47,3.61
			c-0.13,1.03,0.09,2.08,0.62,2.98l2.23,3.69c0.59,0.78,1.57,1.15,2.53,0.94c0,0,2.33-0.49,2.33-0.49c1.46-0.31,2.33-1.81,1.87-3.23
			l-0.61-1.88C324.33,240.48,324.29,236.8,321.01,233.33z"/>
		<path class="st11" d="M344.39,159.96c3.64,9.65-8.95,23.42-8.95,23.42l-15.93-5.27c0,0,1.22-13.17,6.75-20.6
			C333.1,148.34,341.62,152.61,344.39,159.96z"/>
	</g>
</g>
</svg>
